<?xml version="1.0" standalone="no"?>
<!DOCTYPE svg PUBLIC "-//W3C//DTD SVG 20010904//EN"
 "http://www.w3.org/TR/2001/REC-SVG-20010904/DTD/svg10.dtd">
<svg version="1.0" xmlns="http://www.w3.org/2000/svg"
 width="260.000000pt" height="260.000000pt" viewBox="0 0 260.000000 260.000000"
 preserveAspectRatio="xMidYMid meet">
<metadata>
Created by potrace 1.11, written by Peter Selinger 2001-2013
</metadata>
<g transform="translate(0.000000,260.000000) scale(0.100000,-0.100000)"
fill="#000000" stroke="none">
<path d="M1425 2583 c-339 -71 -609 -366 -641 -700 -3 -32 -7 -64 -9 -70 -6
-17 -2 -17 58 11 94 43 202 74 317 92 25 4 132 7 237 8 211 2 204 4 199 -59
l-2 -30 -200 -2 c-173 -1 -214 -4 -312 -27 -417 -94 -732 -427 -806 -852 -7
-40 -12 -94 -12 -121 l1 -48 128 0 c70 0 127 -2 127 -5 26 -370 247 -657 580
-749 75 -21 214 -38 193 -24 -58 40 -113 356 -117 667 l-1 110 110 2 c144 2
209 10 311 39 335 98 599 354 708 687 39 119 46 158 51 288 16 361 -219 680
-570 775 -82 23 -262 27 -350 8z"/>
</g>
</svg>
